# AST/ASF file generated using VICON BodyLanguage
# -----------------------------------------------
:version 1.10
:name VICON
:units
  mass 1.0
  length 0.45
  angle deg
:documentation
   .ast/.asf automatically generated from VICON data using
   VICON BodyBuilder and BodyLanguage model FoxedUp or BRILLIANT.MOD
:root
   order TX TY TZ RX RY RZ
   axis XYZ
   position 0 0 0  
   orientation 0 0 0 
:bonedata
  begin
     id 1 
     name lhipjoint
     direction 0.630082 -0.636569 0.44472 
     length 2.82754 
     axis 0 0 0  XYZ
  end
  begin
     id 2 
     name lfemur
     direction 0.34202 -0.939693 0  
     length 7.26371  
     axis 0 0 20  XYZ
    dof rx ry rz
    limits (-160.0 20.0)
           (-70.0 70.0)
           (-60.0 70.0)
  end
  begin
     id 3 
     name ltibia
     direction 0.34202 -0.939693 0   
     length 7.88616   
     axis 0 0 20   XYZ
    dof rx
    limits (-10.0 170.0)
  end
  begin
     id 4 
     name lfoot
     direction 0.0603448 -0.165796 0.984312   
     length 1.77861   
     axis -90 7.62852e-016 20   XYZ
    dof rx rz
    limits (-45.0 90.0)
           (-70.0 20.0)
  end
  begin
     id 5 
     name ltoes
     direction 1.53577e-011 -4.21876e-011 1   
     length 0.902235   
     axis -90 7.62852e-016 20   XYZ
    dof rx
    limits (-90.0 20.0)
  end
  begin
     id 6 
     name rhipjoint
     direction -0.656778 -0.61817 0.431866   
     length 2.9117  
     axis 0 0 0  XYZ 
  end
  begin
     id 7 
     name rfemur
     direction -0.34202 -0.939693 0   
     length 6.81603   
     axis 0 0 -20   XYZ
    dof rx ry rz
    limits (-160.0 20.0)
           (-70.0 70.0)
           (-70.0 60.0)
  end
  begin
     id 8 
     name rtibia
     direction -0.34202 -0.939693 0   
     length 8.05997   
     axis 0 0 -20   XYZ
    dof rx
    limits (-10.0 170.0)
 end
 begin
     id 9 
     name rfoot
     direction -0.0862404 -0.236944 0.967688   
     length 1.84899  
     axis -90 -7.62852e-016 -20   XYZ
    dof rx rz
    limits (-45.0 90.0)
           (-20.0 70.0)
  end
  begin
     id 10 
     name rtoes
     direction -1.53561e-011 -4.21798e-011 1   
     length 0.931579   
     axis -90 -7.62852e-016 -20   XYZ
    dof rx
    limits (-90.0 20.0)
  end
  begin
     id 11 
     name lowerback
     direction -0.0110203 0.991769 -0.127564   
     length 2.05686   
     axis 0 0 0   XYZ
    dof rx ry rz
    limits (-20.0 45.0)
           (-30.0 30.0)
           (-30.0 30.0)
  end
  begin
     id 12 
     name upperback
     direction 0.0109719 0.99993 -0.00432479   
     length 2.06234   
     axis 0 0 0   XYZ
    dof rx ry rz
    limits (-20.0 45.0)
           (-30.0 30.0)
           (-30.0 30.0)
  end
  begin
     id 13 
     name thorax
     direction 0.0173308 0.998351 0.0547306   
     length 2.09856   
     axis 0 0 0   XYZ
    dof rx ry rz
    limits (-20.0 45.0)
           (-30.0 30.0)
           (-30.0 30.0)
  end
  begin
     id 14 
     name lowerneck
     direction -0.0311736 0.989033 0.144366   
     length 1.98151   
     axis 0 0 0   XYZ
    dof rx ry rz
    limits (-20.0 45.0)
           (-30.0 30.0)
           (-30.0 30.0)
  end
  begin
     id 15 
     name upperneck
     direction 0.0421057 0.975772 -0.214698   
     length 2.01457   
     axis 0 0 0   XYZ
    dof rx ry rz
    limits (-20.0 45.0)
           (-30.0 30.0)
           (-30.0 30.0)
  end
  begin
     id 16
     name head
     direction 0.0136911 0.995958 -0.0887718  
     length 2.03562  
     axis 0 0 0   XYZ
    dof rx ry rz
    limits (-20.0 45.0)
           (-30.0 30.0)
           (-30.0 30.0)
  end
  begin
     id 17 
     name lclavicle
     direction 0.915335 0.396201 0.0720134  
     length 4.16217  
     axis 0 0 0   XYZ
    dof ry rz
    limits (-20.0 10.0)
           (0.0 20.0)
  end
  begin
     id 18 
     name lhumerus
     direction 1 -4.48965e-011 6.383e-018   
     length 4.93042   
     axis -180 -30 -90   XYZ
    dof rx ry rz
    limits (-60.0 90.0)
           (-90.0 90.0)
           (-90.0 90.0)
  end
  begin
     id 19
     name lradius
     direction 1 -4.48972e-011 8.8689e-027   
     length 3.68177   
     axis -180 -30 -90   XYZ
    dof rx
    limits (-10.0 170.0)
  end
  begin
     id 20
     name lwrist
     direction 1 -4.48953e-011 1.17971e-026   
     length 1.84089   
     axis -7.69454e-015 90 90   XYZ
    dof ry
    limits (-180.0 0.0)
 end
  begin
     id 21 
     name lhand
     direction 1 -4.49027e-011 2.35802e-026   
     length 0.721479   
     axis -1.50533e-014 90 90   XYZ
    dof rx rz
    limits (-90.0 90.0)
           (-45.0 45.0)
  end
  begin
     id 22 
     name lfingers
     direction 1 -4.48915e-011 4.72027e-026   
     length 0.581675   
     axis -3.01059e-014 90 90   XYZ
    dof rx
    limits (0.0 90.0)
  end
  begin
     id 23
     name lthumb
     direction 0.707107 -6.34948e-011 0.707107   
     length 0.835172   
     axis -90 45 -5.12164e-014   XYZ
    dof rx rz
    limits (-45.0 45.0)
           (-45.0 45.0)
  end
  begin
     id 24 
     name rclavicle
     direction -0.882781 0.469197 0.0234974   
     length 3.95647  
     axis 0 0 0   XYZ 
    dof ry rz
    limits (-10.0 20.0)
           (-20.0 0.0)
  end
  begin
     id 25 
     name rhumerus
     direction -1 -4.48965e-011 -1.54906e-018  
     length 5.07905   
     axis -180 30 90   XYZ
    dof rx ry rz
    limits (-90.0 60.0)
           (-90.0 90.0)
           (-90.0 90.0)
  end
  begin
     id 26 
     name rradius
     direction -1 -4.48972e-011 5.47489e-027   
     length 3.54394   
     axis -180 30 90   XYZ
    dof rx
    limits (-10.0 170.0)
  end
  begin
     id 27 
     name rwrist
     direction -1 -4.48955e-011 1.17969e-026   
     length 1.77197   
     axis -7.69454e-015 -90 -90   XYZ
    dof ry
    limits (-180.0 0.0)
  end
  begin
     id 28
     name rhand
     direction -1 -4.48982e-011 2.35888e-026   
     length 0.681156   
     axis -1.50533e-014 -90 -90   XYZ
    dof rx rz
    limits (-90.0 90.0)
           (-45.0 45.0)
  end
  begin
     id 29
     name rfingers
     direction -1 -4.48955e-011 4.71877e-026   
     length 0.549165   
     axis -3.01059e-014 -90 -90   XYZ
    dof rx
    limits (0.0 90.0)
  end
  begin
     id 30
     name rthumb
     direction -0.707107 -6.3491e-011 0.707107   
     length 0.788495   
     axis -90 -45 5.12164e-014   XYZ
    dof rx rz
    limits (-45.0 45.0)
           (-45.0 45.0)
  end
:hierarchy
  begin
    root lhipjoint rhipjoint lowerback
    lhipjoint lfemur
    lfemur ltibia
    ltibia lfoot
    lfoot ltoes
    rhipjoint rfemur
    rfemur rtibia
    rtibia rfoot
    rfoot rtoes
    lowerback upperback
    upperback thorax
    thorax lowerneck lclavicle rclavicle
    lowerneck upperneck
    upperneck head
    lclavicle lhumerus
    lhumerus lradius
    lradius lwrist
    lwrist lhand lthumb
    lhand lfingers
    rclavicle rhumerus
    rhumerus rradius
    rradius rwrist
    rwrist rhand rthumb
    rhand rfingers
  end

#!OML:ASF H:\Bending\Project 1\Capture day 1\Session 1\Subject.ASF
:FULLY-SPECIFIED
:DEGREES
114
root -12.2204 12.0022 -16.1022 182.683 82.2898 180.706
lowerback 51.3154 -3.70882 3.93232
upperback 6.18413 -0.336116 1.75147
thorax -13.9194 0.365448 0.125657
lowerneck -23.5326 -5.28385 -8.557
upperneck 11.096 -5.56213 6.77103
head 7.65165 -2.36091 2.89701
rclavicle 4.65156e-014 8.74653e-015
rhumerus 14.8528 -15.2138 -100.615
rradius 27.2132
rwrist 26.6965
rhand -28.9104 -23.343
rfingers 7.12502
rthumb -2.26521 -53.3107
lclavicle 4.65156e-014 8.74653e-015
lhumerus 20.0014 -4.54278 103.17
lradius 19.0255
lwrist 11.0412
lhand -38.028 20.5845
lfingers 7.12502
lthumb -11.0663 50.2728
rfemur -63.9161 -47.9521 9.98938
rtibia 113.098
rfoot -30.3297 14.1965
rtoes -12.6971
lfemur -67.9585 25.4419 -12.3406
ltibia 108.435
lfoot -26.0489 -27.9292
ltoes -0.526785
115
root -12.2319 12.1548 -16.1181 183.226 82.307 180.749
lowerback 50.6646 -3.6541 3.97583
upperback 6.22565 -0.321411 1.76221
thorax -13.7788 0.359154 0.102197
lowerneck -23.5127 -5.26886 -8.54625
upperneck 11.0611 -5.51488 6.60209
head 7.62671 -2.35517 2.84485
rclavicle 2.54444e-014 2.38542e-014
rhumerus 14.7698 -14.7887 -100.332
rradius 27.8487
rwrist 26.6039
rhand -28.4327 -23.4105
rfingers 7.12502
rthumb -1.80382 -53.3827
lclavicle 2.54444e-014 2.38542e-014
lhumerus 19.5814 -4.6831 103.191
lradius 19.9822
lwrist 11.5053
lhand -37.317 20.4347
lfingers 7.12502
lthumb -10.3804 50.1584
rfemur -63.7393 -46.7527 10.6426
rtibia 111.523
rfoot -30.1201 13.5491
rtoes -12.8826
lfemur -67.5206 24.4652 -12.7683
ltibia 106.984
lfoot -27.1233 -26.478
ltoes -2.59113
116
root -12.2412 12.3146 -16.1342 183.598 82.3746 180.679
lowerback 50.0243 -3.53865 3.96454
upperback 6.27675 -0.258703 1.78533
thorax -13.6249 0.375914 0.0951311
lowerneck -23.4985 -5.28161 -8.55962
upperneck 11.1065 -5.50766 6.46848
head 7.63469 -2.36629 2.80287
rclavicle 1.59028e-015 -5.56597e-015
rhumerus 14.6506 -14.28 -99.9489
rradius 28.4074
rwrist 26.1412
rhand -28.4184 -23.6075
rfingers 7.12502
rthumb -1.78996 -53.5797
lclavicle 1.59028e-015 -5.56597e-015
lhumerus 19.1674 -4.72693 103.334
lradius 20.8728
lwrist 11.8686
lhand -36.7615 20.3784
lfingers 7.12502
lthumb -9.84454 50.1283
rfemur -63.4076 -45.5736 11.2391
rtibia 109.833
rfoot -30.0218 12.652
rtoes -13.6383
lfemur -66.9534 23.5472 -13.1358
ltibia 105.464
lfoot -27.9895 -25.0255
ltoes -4.88068
117
root -12.248 12.4842 -16.1503 183.753 82.4774 180.467
lowerback 49.409 -3.37551 3.90753
upperback 6.33123 -0.158078 1.81057
thorax -13.4673 0.411331 0.0944754
lowerneck -23.4945 -5.3223 -8.5809
upperneck 11.2452 -5.54748 6.37889
head 7.68105 -2.39607 2.77034
rclavicle -3.18055e-015 1.47101e-014
rhumerus 14.4294 -13.6246 -99.4525
rradius 28.977
rwrist 25.2069
rhand -28.818 -23.8009
rfingers 7.12502
rthumb -2.1759 -53.7695
lclavicle -3.18055e-015 1.47101e-014
lhumerus 18.7574 -4.84298 103.488
lradius 21.6681
lwrist 12.262
lhand -36.5056 20.4415
lfingers 7.12502
lthumb -9.59761 50.2029
rfemur -62.8734 -44.4173 11.7506
rtibia 108.01
rfoot -30.0005 11.4797
rtoes -15.062
lfemur -66.2122 22.6792 -13.4448
ltibia 103.841
lfoot -28.6441 -23.6192
ltoes -7.26867
118
root -12.2518 12.6659 -16.1665 183.712 82.591 180.134
lowerback 48.8118 -3.19297 3.82675
upperback 6.38177 -0.0443916 1.8267
thorax -13.3137 0.453771 0.0897474
lowerneck -23.5031 -5.37559 -8.579
upperneck 11.467 -5.61984 6.31792
head 7.76022 -2.43755 2.73905
rclavicle 4.77083e-015 6.36111e-015
rhumerus 14.0939 -12.8723 -98.8956
rradius 29.585
rwrist 23.9537
rhand -29.3864 -23.8936
rfingers 7.12502
rthumb -2.72491 -53.8559
lclavicle 4.77083e-015 6.36111e-015
lhumerus 18.3359 -5.12424 103.563
lradius 22.3836
lwrist 12.7964
lhand -36.5685 20.5606
lfingers 7.12502
lthumb -9.65832 50.3192
rfemur -62.1101 -43.2803 12.1597
rtibia 106.044
rfoot -29.9826 10.1575
rtoes -16.706
lfemur -65.2818 21.8449 -13.7063
ltibia 102.085
lfoot -29.107 -22.2932
ltoes -9.57163
119
root -12.2521 12.8604 -16.1831 183.558 82.6916 179.742
lowerback 47.3458 -2.95641 3.66414
upperback 7.40853 0.0395276 1.9191
thorax -13.2865 0.493027 0.0880616
lowerneck -23.5254 -5.41948 -8.52899
upperneck 11.7445 -5.69703 6.26107
head 7.85966 -2.47853 2.7006
rclavicle 2.38542e-015 -1.19271e-014
rhumerus 13.6733 -12.1438 -98.361
rradius 30.2048
rwrist 22.7042
rhand -29.8023 -23.8784
rfingers 7.12502
rthumb -3.12655 -53.8352
lclavicle 2.38542e-015 -1.19271e-014
lhumerus 17.8785 -5.56429 103.518
lradius 23.0692
lwrist 13.5085
lhand -36.8355 20.6358
lfingers 7.12502
lthumb -9.91594 50.3823
rfemur -61.1262 -42.1589 12.468
rtibia 103.941
rfoot -29.9007 8.91094
rtoes -17.8466
lfemur -64.1854 21.0338 -13.9352
ltibia 100.18
lfoot -29.4001 -21.0733
ltoes -11.5852
120
root -12.2486 13.0665 -16.2002 183.407 82.766 179.378
lowerback 46.7242 -2.82032 3.59944
upperback 7.40072 0.100994 1.90449
thorax -13.1333 0.511288 0.0723553
lowerneck -23.561 -5.43622 -8.42869
upperneck 12.0475 -5.75111 6.19159
head 7.96638 -2.50702 2.65296
rclavicle -1.11319e-014 3.10104e-014
rhumerus 13.2021 -11.548 -97.9104
rradius 30.7921
rwrist 21.7758
rhand -29.8208 -23.828
rfingers 7.12502
rthumb -3.14439 -53.7846
lclavicle -1.11319e-014 3.10104e-014
lhumerus 17.358 -6.08003 103.361
lradius 23.7819
lwrist 14.3343
lhand -37.1113 20.5948
lfingers 7.12502
lthumb -10.182 50.3284
rfemur -59.9632 -41.0514 12.6948
rtibia 101.715
rfoot -29.7308 7.94448
rtoes -17.9139
lfemur -62.9754 20.2478 -14.1438
ltibia 98.1382
lfoot -29.5373 -19.9805
ltoes -13.1429
121
root -12.2411 13.2811 -16.2182 183.364 82.8176 179.118
lowerback 46.0293 -2.72006 3.55141
upperback 7.37642 0.119288 1.88382
thorax -12.9759 0.508691 0.062567
lowerneck -23.6074 -5.4195 -8.30019
upperneck 12.3538 -5.76555 6.10964
head 8.07192 -2.51612 2.60213
rclavicle 5.96354e-014 9.30312e-014
rhumerus 12.6877 -11.1135 -97.5524
rradius 31.3313
rwrist 21.3216
rhand -29.3723 -23.8178
rfingers 7.12502
rthumb -2.7113 -53.7803
lclavicle 5.96354e-014 9.30312e-014
lhumerus 16.7521 -6.57462 103.13
lradius 24.5618
lwrist 15.1373
lhand -37.2124 20.4402
lfingers 7.12502
lthumb -10.2796 50.169
rfemur -58.6777 -39.9553 12.8697
rtibia 99.3858
rfoot -29.4907 7.31941
rtoes -16.8227
lfemur -61.7103 19.5017 -14.3365
ltibia 95.991
lfoot -29.5266 -19.0262
ltoes -14.1685
122
root -12.2294 13.5008 -16.2371 183.474 82.864 178.998
lowerback 45.2513 -2.64496 3.51375
upperback 7.33437 0.104103 1.86492
thorax -12.8113 0.489134 0.0653632
lowerneck -23.6601 -5.37533 -8.17758
upperneck 12.6529 -5.73965 6.02751
head 8.17356 -2.50605 2.55795
rclavicle 2.22639e-014 0
rhumerus 12.0995 -10.7682 -97.2405
rradius 31.8588
rwrist 21.2689
rhand -28.5625 -23.8462
rfingers 7.12502
rthumb -1.92916 -53.8172
lclavicle 2.22639e-014 0
lhumerus 16.0495 -7.0088 102.856
lradius 25.4221
lwrist 15.7822
lhand -37.0587 20.2535
lfingers 7.12502
lthumb -10.1313 49.9895
rfemur -57.3191 -38.8658 13.0209
rtibia 96.9646
rfoot -29.2136 6.92437
rtoes -15.0399
lfemur -60.4306 18.8136 -14.5108
ltibia 93.7773
lfoot -29.3804 -18.1977
ltoes -14.7157
123
root -12.2134 13.723 -16.2572 183.719 82.9291 178.999
lowerback 44.4009 -2.57702 3.47824
upperback 7.27428 0.0748231 1.85137
thorax -12.6409 0.461231 0.0793581
lowerneck -23.7132 -5.31701 -8.08846
upperneck 12.9445 -5.68533 5.95801
head 8.27239 -2.48275 2.5276
rclavicle -2.14687e-014 7.95139e-016
rhumerus 11.3816 -10.3694 -96.8973
rradius 32.4493
rwrist 21.3721
rhand -27.5943 -23.8281
rfingers 7.12502
rthumb -0.994126 -53.8055
lclavicle -2.14687e-014 7.95139e-016
lhumerus 15.2498 -7.4429 102.542
lradius 26.3583
lwrist 16.2168
lhand -36.7174 20.143
lfingers 7.12502
lthumb -9.802 49.8948
rfemur -55.916 -37.7772 13.1671
rtibia 94.4557
rfoot -28.9254 6.55373
rtoes -13.3452
lfemur -59.1468 18.1953 -14.6633
ltibia 91.5275
lfoot -29.1232 -17.4488
ltoes -14.9737
124
root -12.193 13.9463 -16.2785 184.026 83.0331 179.064
lowerback 43.5008 -2.49864 3.43902
upperback 7.19645 0.05253 1.84265
thorax -12.4689 0.434676 0.0971433
lowerneck -23.7615 -5.25765 -8.04047
upperneck 13.2339 -5.61842 5.90069
head 8.37075 -2.45441 2.50994
rclavicle 7.55382e-015 1.27222e-014
rhumerus 10.4812 -9.76912 -96.4498
rradius 33.1742
rwrist 21.3495
rhand -26.6628 -23.6572
rfingers 7.12502
rthumb -0.0944283 -53.6369
lclavicle 7.55382e-015 1.27222e-014
lhumerus 14.3596 -8.02277 102.161
lradius 27.3641
lwrist 16.5108
lhand -36.3789 20.1801
lfingers 7.12502
lthumb -9.47544 49.9471
rfemur -54.4758 -36.6848 13.3147
rtibia 91.858
rfoot -28.6327 6.02652
rtoes -12.3937
lfemur -57.8441 17.6469 -14.7957
ltibia 89.2542
lfoot -28.7916 -16.7058
ltoes -15.2275
125
root -12.1685 14.1705 -16.3012 184.302 83.1847 179.113
lowerback 42.573 -2.39888 3.39461
upperback 7.10039 0.0521573 1.83607
thorax -12.3009 0.416488 0.109931
lowerneck -23.8016 -5.20486 -8.02031
upperneck 13.5282 -5.55083 5.83888
head 8.47036 -2.42793 2.49548
rclavicle -4.37326e-015 3.81667e-014
rhumerus 9.37578 -8.88084 -95.8597
rradius 34.0601
rwrist 21.0258
rhand -25.8798 -23.2874
rfingers 7.12502
rthumb 0.661838 -53.2661
lclavicle -4.37326e-015 3.81667e-014
lhumerus 13.3863 -8.91685 101.678
lradius 28.4441
lwrist 16.832
lhand -36.2687 20.3683
lfingers 7.12502
lthumb -9.36905 50.1401
rfemur -52.998 -35.5901 13.4602
rtibia 89.1743
rfoot -28.3201 5.27204
rtoes -12.3654
lfemur -56.502 17.1576 -14.9188
ltibia 86.9539
lfoot -28.4245 -15.8896
ltoes -15.7673
126
root -12.1403 14.3955 -16.3253 184.466 83.3781 179.066
lowerback 41.6269 -2.27427 3.34462
upperback 6.98468 0.0793572 1.83128
thorax -12.1405 0.409494 0.115526
lowerneck -23.8337 -5.15995 -8.00544
upperneck 13.8365 -5.48691 5.7476
head 8.57328 -2.40694 2.47135
rclavicle -6.75868e-015 -3.4191e-014
rhumerus 8.08229 -7.70584 -95.1299
rradius 35.0733
rwrist 20.3944
rhand -25.2688 -22.7868
rfingers 7.12502
rthumb 1.25194 -52.7628
lclavicle -6.75868e-015 -3.4191e-014
lhumerus 12.3351 -10.2383 101.074
lradius 29.6192
lwrist 17.371
lhand -36.5432 20.6575
lfingers 7.12502
lthumb -9.63391 50.4172
rfemur -51.4878 -34.5007 13.5957
rtibia 86.4181
rfoot -27.9598 4.35228
rtoes -12.8975
lfemur -55.113 16.7121 -15.0498
ltibia 84.6163
lfoot -28.0498 -14.946
ltoes -16.7856
